<?xml version="1.0" encoding="utf-8"?>
<svg xmlns="http://www.w3.org/2000/svg" xmlns:xlink="http://www.w3.org/1999/xlink" width="600" height="400" viewBox="0 0 2400 1600">
<defs>
  <clipPath id="clip640">
    <rect x="0" y="0" width="2400" height="1600"/>
  </clipPath>
</defs>
<path clip-path="url(#clip640)" d="M0 1600 L2400 1600 L2400 0 L0 0  Z" fill="#ffffff" fill-rule="evenodd" fill-opacity="1"/>
<defs>
  <clipPath id="clip641">
    <rect x="480" y="0" width="1681" height="1600"/>
  </clipPath>
</defs>
<path clip-path="url(#clip640)" d="M139.446 1423.18 L2352.76 1423.18 L2352.76 47.2441 L139.446 47.2441  Z" fill="#ffffff" fill-rule="evenodd" fill-opacity="1"/>
<defs>
  <clipPath id="clip642">
    <rect x="139" y="47" width="2214" height="1377"/>
  </clipPath>
</defs>
<polyline clip-path="url(#clip642)" style="stroke:#000000; stroke-linecap:round; stroke-linejoin:round; stroke-width:2; stroke-opacity:0.1; fill:none" points="377.054,1423.18 377.054,47.2441 "/>
<polyline clip-path="url(#clip642)" style="stroke:#000000; stroke-linecap:round; stroke-linejoin:round; stroke-width:2; stroke-opacity:0.1; fill:none" points="840.546,1423.18 840.546,47.2441 "/>
<polyline clip-path="url(#clip642)" style="stroke:#000000; stroke-linecap:round; stroke-linejoin:round; stroke-width:2; stroke-opacity:0.1; fill:none" points="1304.04,1423.18 1304.04,47.2441 "/>
<polyline clip-path="url(#clip642)" style="stroke:#000000; stroke-linecap:round; stroke-linejoin:round; stroke-width:2; stroke-opacity:0.1; fill:none" points="1767.53,1423.18 1767.53,47.2441 "/>
<polyline clip-path="url(#clip642)" style="stroke:#000000; stroke-linecap:round; stroke-linejoin:round; stroke-width:2; stroke-opacity:0.1; fill:none" points="2231.02,1423.18 2231.02,47.2441 "/>
<polyline clip-path="url(#clip642)" style="stroke:#000000; stroke-linecap:round; stroke-linejoin:round; stroke-width:2; stroke-opacity:0.1; fill:none" points="139.446,1423.18 2352.76,1423.18 "/>
<polyline clip-path="url(#clip642)" style="stroke:#000000; stroke-linecap:round; stroke-linejoin:round; stroke-width:2; stroke-opacity:0.1; fill:none" points="139.446,1226.62 2352.76,1226.62 "/>
<polyline clip-path="url(#clip642)" style="stroke:#000000; stroke-linecap:round; stroke-linejoin:round; stroke-width:2; stroke-opacity:0.1; fill:none" points="139.446,1030.06 2352.76,1030.06 "/>
<polyline clip-path="url(#clip642)" style="stroke:#000000; stroke-linecap:round; stroke-linejoin:round; stroke-width:2; stroke-opacity:0.1; fill:none" points="139.446,833.493 2352.76,833.493 "/>
<polyline clip-path="url(#clip642)" style="stroke:#000000; stroke-linecap:round; stroke-linejoin:round; stroke-width:2; stroke-opacity:0.1; fill:none" points="139.446,636.931 2352.76,636.931 "/>
<polyline clip-path="url(#clip642)" style="stroke:#000000; stroke-linecap:round; stroke-linejoin:round; stroke-width:2; stroke-opacity:0.1; fill:none" points="139.446,440.369 2352.76,440.369 "/>
<polyline clip-path="url(#clip642)" style="stroke:#000000; stroke-linecap:round; stroke-linejoin:round; stroke-width:2; stroke-opacity:0.1; fill:none" points="139.446,243.806 2352.76,243.806 "/>
<polyline clip-path="url(#clip642)" style="stroke:#000000; stroke-linecap:round; stroke-linejoin:round; stroke-width:2; stroke-opacity:0.1; fill:none" points="139.446,47.2441 2352.76,47.2441 "/>
<polyline clip-path="url(#clip640)" style="stroke:#000000; stroke-linecap:round; stroke-linejoin:round; stroke-width:4; stroke-opacity:1; fill:none" points="139.446,1423.18 2352.76,1423.18 "/>
<polyline clip-path="url(#clip640)" style="stroke:#000000; stroke-linecap:round; stroke-linejoin:round; stroke-width:4; stroke-opacity:1; fill:none" points="377.054,1423.18 377.054,1404.28 "/>
<polyline clip-path="url(#clip640)" style="stroke:#000000; stroke-linecap:round; stroke-linejoin:round; stroke-width:4; stroke-opacity:1; fill:none" points="840.546,1423.18 840.546,1404.28 "/>
<polyline clip-path="url(#clip640)" style="stroke:#000000; stroke-linecap:round; stroke-linejoin:round; stroke-width:4; stroke-opacity:1; fill:none" points="1304.04,1423.18 1304.04,1404.28 "/>
<polyline clip-path="url(#clip640)" style="stroke:#000000; stroke-linecap:round; stroke-linejoin:round; stroke-width:4; stroke-opacity:1; fill:none" points="1767.53,1423.18 1767.53,1404.28 "/>
<polyline clip-path="url(#clip640)" style="stroke:#000000; stroke-linecap:round; stroke-linejoin:round; stroke-width:4; stroke-opacity:1; fill:none" points="2231.02,1423.18 2231.02,1404.28 "/>
<path clip-path="url(#clip640)" d="M336.661 1481.64 L344.3 1481.64 L344.3 1455.28 L335.99 1456.95 L335.99 1452.69 L344.254 1451.02 L348.93 1451.02 L348.93 1481.64 L356.568 1481.64 L356.568 1485.58 L336.661 1485.58 L336.661 1481.64 Z" fill="#000000" fill-rule="nonzero" fill-opacity="1" /><path clip-path="url(#clip640)" d="M376.591 1466.44 Q373.443 1466.44 371.591 1468.59 Q369.763 1470.74 369.763 1474.49 Q369.763 1478.22 371.591 1480.39 Q373.443 1482.55 376.591 1482.55 Q379.74 1482.55 381.568 1480.39 Q383.42 1478.22 383.42 1474.49 Q383.42 1470.74 381.568 1468.59 Q379.74 1466.44 376.591 1466.44 M385.874 1451.78 L385.874 1456.04 Q384.115 1455.21 382.309 1454.77 Q380.527 1454.33 378.767 1454.33 Q374.138 1454.33 371.684 1457.45 Q369.254 1460.58 368.906 1466.9 Q370.272 1464.89 372.332 1463.82 Q374.392 1462.73 376.869 1462.73 Q382.078 1462.73 385.087 1465.9 Q388.119 1469.05 388.119 1474.49 Q388.119 1479.82 384.971 1483.03 Q381.823 1486.25 376.591 1486.25 Q370.596 1486.25 367.425 1481.67 Q364.254 1477.06 364.254 1468.33 Q364.254 1460.14 368.142 1455.28 Q372.031 1450.39 378.582 1450.39 Q380.341 1450.39 382.124 1450.74 Q383.929 1451.09 385.874 1451.78 Z" fill="#000000" fill-rule="nonzero" fill-opacity="1" /><path clip-path="url(#clip640)" d="M406.175 1454.1 Q402.564 1454.1 400.735 1457.66 Q398.929 1461.2 398.929 1468.33 Q398.929 1475.44 400.735 1479.01 Q402.564 1482.55 406.175 1482.55 Q409.809 1482.55 411.614 1479.01 Q413.443 1475.44 413.443 1468.33 Q413.443 1461.2 411.614 1457.66 Q409.809 1454.1 406.175 1454.1 M406.175 1450.39 Q411.985 1450.39 415.04 1455 Q418.119 1459.58 418.119 1468.33 Q418.119 1477.06 415.04 1481.67 Q411.985 1486.25 406.175 1486.25 Q400.364 1486.25 397.286 1481.67 Q394.23 1477.06 394.23 1468.33 Q394.23 1459.58 397.286 1455 Q400.364 1450.39 406.175 1450.39 Z" fill="#000000" fill-rule="nonzero" fill-opacity="1" /><path clip-path="url(#clip640)" d="M800.152 1481.64 L807.791 1481.64 L807.791 1455.28 L799.481 1456.95 L799.481 1452.69 L807.745 1451.02 L812.421 1451.02 L812.421 1481.64 L820.06 1481.64 L820.06 1485.58 L800.152 1485.58 L800.152 1481.64 Z" fill="#000000" fill-rule="nonzero" fill-opacity="1" /><path clip-path="url(#clip640)" d="M839.504 1469.17 Q836.171 1469.17 834.25 1470.95 Q832.351 1472.73 832.351 1475.86 Q832.351 1478.98 834.25 1480.77 Q836.171 1482.55 839.504 1482.55 Q842.837 1482.55 844.759 1480.77 Q846.68 1478.96 846.68 1475.86 Q846.68 1472.73 844.759 1470.95 Q842.861 1469.17 839.504 1469.17 M834.828 1467.18 Q831.819 1466.44 830.129 1464.38 Q828.463 1462.32 828.463 1459.35 Q828.463 1455.21 831.402 1452.8 Q834.365 1450.39 839.504 1450.39 Q844.666 1450.39 847.606 1452.8 Q850.546 1455.21 850.546 1459.35 Q850.546 1462.32 848.856 1464.38 Q847.189 1466.44 844.203 1467.18 Q847.583 1467.96 849.458 1470.26 Q851.356 1472.55 851.356 1475.86 Q851.356 1480.88 848.277 1483.57 Q845.222 1486.25 839.504 1486.25 Q833.787 1486.25 830.708 1483.57 Q827.652 1480.88 827.652 1475.86 Q827.652 1472.55 829.55 1470.26 Q831.449 1467.96 834.828 1467.18 M833.115 1459.79 Q833.115 1462.48 834.782 1463.98 Q836.472 1465.49 839.504 1465.49 Q842.513 1465.49 844.203 1463.98 Q845.916 1462.48 845.916 1459.79 Q845.916 1457.11 844.203 1455.6 Q842.513 1454.1 839.504 1454.1 Q836.472 1454.1 834.782 1455.6 Q833.115 1457.11 833.115 1459.79 Z" fill="#000000" fill-rule="nonzero" fill-opacity="1" /><path clip-path="url(#clip640)" d="M869.666 1454.1 Q866.055 1454.1 864.226 1457.66 Q862.421 1461.2 862.421 1468.33 Q862.421 1475.44 864.226 1479.01 Q866.055 1482.55 869.666 1482.55 Q873.3 1482.55 875.106 1479.01 Q876.934 1475.44 876.934 1468.33 Q876.934 1461.2 875.106 1457.66 Q873.3 1454.1 869.666 1454.1 M869.666 1450.39 Q875.476 1450.39 878.532 1455 Q881.61 1459.58 881.61 1468.33 Q881.61 1477.06 878.532 1481.67 Q875.476 1486.25 869.666 1486.25 Q863.856 1486.25 860.777 1481.67 Q857.722 1477.06 857.722 1468.33 Q857.722 1459.58 860.777 1455 Q863.856 1450.39 869.666 1450.39 Z" fill="#000000" fill-rule="nonzero" fill-opacity="1" /><path clip-path="url(#clip640)" d="M1267.73 1481.64 L1284.05 1481.64 L1284.05 1485.58 L1262.1 1485.58 L1262.1 1481.64 Q1264.77 1478.89 1269.35 1474.26 Q1273.96 1469.61 1275.14 1468.27 Q1277.38 1465.74 1278.26 1464.01 Q1279.16 1462.25 1279.16 1460.56 Q1279.16 1457.8 1277.22 1456.07 Q1275.3 1454.33 1272.2 1454.33 Q1270 1454.33 1267.54 1455.09 Q1265.11 1455.86 1262.34 1457.41 L1262.34 1452.69 Q1265.16 1451.55 1267.61 1450.97 Q1270.07 1450.39 1272.1 1450.39 Q1277.47 1450.39 1280.67 1453.08 Q1283.86 1455.77 1283.86 1460.26 Q1283.86 1462.39 1283.05 1464.31 Q1282.27 1466.2 1280.16 1468.8 Q1279.58 1469.47 1276.48 1472.69 Q1273.38 1475.88 1267.73 1481.64 Z" fill="#000000" fill-rule="nonzero" fill-opacity="1" /><path clip-path="url(#clip640)" d="M1303.86 1454.1 Q1300.25 1454.1 1298.42 1457.66 Q1296.62 1461.2 1296.62 1468.33 Q1296.62 1475.44 1298.42 1479.01 Q1300.25 1482.55 1303.86 1482.55 Q1307.5 1482.55 1309.3 1479.01 Q1311.13 1475.44 1311.13 1468.33 Q1311.13 1461.2 1309.3 1457.66 Q1307.5 1454.1 1303.86 1454.1 M1303.86 1450.39 Q1309.67 1450.39 1312.73 1455 Q1315.81 1459.58 1315.81 1468.33 Q1315.81 1477.06 1312.73 1481.67 Q1309.67 1486.25 1303.86 1486.25 Q1298.05 1486.25 1294.97 1481.67 Q1291.92 1477.06 1291.92 1468.33 Q1291.92 1459.58 1294.97 1455 Q1298.05 1450.39 1303.86 1450.39 Z" fill="#000000" fill-rule="nonzero" fill-opacity="1" /><path clip-path="url(#clip640)" d="M1334.03 1454.1 Q1330.41 1454.1 1328.59 1457.66 Q1326.78 1461.2 1326.78 1468.33 Q1326.78 1475.44 1328.59 1479.01 Q1330.41 1482.55 1334.03 1482.55 Q1337.66 1482.55 1339.47 1479.01 Q1341.29 1475.44 1341.29 1468.33 Q1341.29 1461.2 1339.47 1457.66 Q1337.66 1454.1 1334.03 1454.1 M1334.03 1450.39 Q1339.84 1450.39 1342.89 1455 Q1345.97 1459.58 1345.97 1468.33 Q1345.97 1477.06 1342.89 1481.67 Q1339.84 1486.25 1334.03 1486.25 Q1328.22 1486.25 1325.14 1481.67 Q1322.08 1477.06 1322.08 1468.33 Q1322.08 1459.58 1325.14 1455 Q1328.22 1450.39 1334.03 1450.39 Z" fill="#000000" fill-rule="nonzero" fill-opacity="1" /><path clip-path="url(#clip640)" d="M1731.22 1481.64 L1747.54 1481.64 L1747.54 1485.58 L1725.6 1485.58 L1725.6 1481.64 Q1728.26 1478.89 1732.84 1474.26 Q1737.45 1469.61 1738.63 1468.27 Q1740.87 1465.74 1741.75 1464.01 Q1742.66 1462.25 1742.66 1460.56 Q1742.66 1457.8 1740.71 1456.07 Q1738.79 1454.33 1735.69 1454.33 Q1733.49 1454.33 1731.04 1455.09 Q1728.61 1455.86 1725.83 1457.41 L1725.83 1452.69 Q1728.65 1451.55 1731.11 1450.97 Q1733.56 1450.39 1735.6 1450.39 Q1740.97 1450.39 1744.16 1453.08 Q1747.36 1455.77 1747.36 1460.26 Q1747.36 1462.39 1746.54 1464.31 Q1745.76 1466.2 1743.65 1468.8 Q1743.07 1469.47 1739.97 1472.69 Q1736.87 1475.88 1731.22 1481.64 Z" fill="#000000" fill-rule="nonzero" fill-opacity="1" /><path clip-path="url(#clip640)" d="M1761.38 1481.64 L1777.7 1481.64 L1777.7 1485.58 L1755.76 1485.58 L1755.76 1481.64 Q1758.42 1478.89 1763 1474.26 Q1767.61 1469.61 1768.79 1468.27 Q1771.04 1465.74 1771.92 1464.01 Q1772.82 1462.25 1772.82 1460.56 Q1772.82 1457.8 1770.87 1456.07 Q1768.95 1454.33 1765.85 1454.33 Q1763.65 1454.33 1761.2 1455.09 Q1758.77 1455.86 1755.99 1457.41 L1755.99 1452.69 Q1758.81 1451.55 1761.27 1450.97 Q1763.72 1450.39 1765.76 1450.39 Q1771.13 1450.39 1774.32 1453.08 Q1777.52 1455.77 1777.52 1460.26 Q1777.52 1462.39 1776.71 1464.31 Q1775.92 1466.2 1773.81 1468.8 Q1773.23 1469.47 1770.13 1472.69 Q1767.03 1475.88 1761.38 1481.64 Z" fill="#000000" fill-rule="nonzero" fill-opacity="1" /><path clip-path="url(#clip640)" d="M1797.52 1454.1 Q1793.91 1454.1 1792.08 1457.66 Q1790.27 1461.2 1790.27 1468.33 Q1790.27 1475.44 1792.08 1479.01 Q1793.91 1482.55 1797.52 1482.55 Q1801.15 1482.55 1802.96 1479.01 Q1804.79 1475.44 1804.79 1468.33 Q1804.79 1461.2 1802.96 1457.66 Q1801.15 1454.1 1797.52 1454.1 M1797.52 1450.39 Q1803.33 1450.39 1806.38 1455 Q1809.46 1459.58 1809.46 1468.33 Q1809.46 1477.06 1806.38 1481.67 Q1803.33 1486.25 1797.52 1486.25 Q1791.71 1486.25 1788.63 1481.67 Q1785.57 1477.06 1785.57 1468.33 Q1785.57 1459.58 1788.63 1455 Q1791.71 1450.39 1797.52 1450.39 Z" fill="#000000" fill-rule="nonzero" fill-opacity="1" /><path clip-path="url(#clip640)" d="M2194.71 1481.64 L2211.03 1481.64 L2211.03 1485.58 L2189.09 1485.58 L2189.09 1481.64 Q2191.75 1478.89 2196.33 1474.26 Q2200.94 1469.61 2202.12 1468.27 Q2204.36 1465.74 2205.24 1464.01 Q2206.15 1462.25 2206.15 1460.56 Q2206.15 1457.8 2204.2 1456.07 Q2202.28 1454.33 2199.18 1454.33 Q2196.98 1454.33 2194.53 1455.09 Q2192.1 1455.86 2189.32 1457.41 L2189.32 1452.69 Q2192.14 1451.55 2194.6 1450.97 Q2197.05 1450.39 2199.09 1450.39 Q2204.46 1450.39 2207.65 1453.08 Q2210.85 1455.77 2210.85 1460.26 Q2210.85 1462.39 2210.04 1464.31 Q2209.25 1466.2 2207.14 1468.8 Q2206.56 1469.47 2203.46 1472.69 Q2200.36 1475.88 2194.71 1481.64 Z" fill="#000000" fill-rule="nonzero" fill-opacity="1" /><path clip-path="url(#clip640)" d="M2233.69 1455.09 L2221.89 1473.54 L2233.69 1473.54 L2233.69 1455.09 M2232.47 1451.02 L2238.35 1451.02 L2238.35 1473.54 L2243.28 1473.54 L2243.28 1477.43 L2238.35 1477.43 L2238.35 1485.58 L2233.69 1485.58 L2233.69 1477.43 L2218.09 1477.43 L2218.09 1472.92 L2232.47 1451.02 Z" fill="#000000" fill-rule="nonzero" fill-opacity="1" /><path clip-path="url(#clip640)" d="M2261.01 1454.1 Q2257.4 1454.1 2255.57 1457.66 Q2253.76 1461.2 2253.76 1468.33 Q2253.76 1475.44 2255.57 1479.01 Q2257.4 1482.55 2261.01 1482.55 Q2264.64 1482.55 2266.45 1479.01 Q2268.28 1475.44 2268.28 1468.33 Q2268.28 1461.2 2266.45 1457.66 Q2264.64 1454.1 2261.01 1454.1 M2261.01 1450.39 Q2266.82 1450.39 2269.87 1455 Q2272.95 1459.58 2272.95 1468.33 Q2272.95 1477.06 2269.87 1481.67 Q2266.82 1486.25 2261.01 1486.25 Q2255.2 1486.25 2252.12 1481.67 Q2249.06 1477.06 2249.06 1468.33 Q2249.06 1459.58 2252.12 1455 Q2255.2 1450.39 2261.01 1450.39 Z" fill="#000000" fill-rule="nonzero" fill-opacity="1" /><path clip-path="url(#clip640)" d="M1120.47 1525.81 L1120.47 1562.76 L1128.24 1562.76 Q1138.07 1562.76 1142.63 1558.3 Q1147.21 1553.85 1147.21 1544.24 Q1147.21 1534.69 1142.63 1530.26 Q1138.07 1525.81 1128.24 1525.81 L1120.47 1525.81 M1114.04 1520.52 L1127.25 1520.52 Q1141.07 1520.52 1147.53 1526.28 Q1153.99 1532.01 1153.99 1544.24 Q1153.99 1556.52 1147.5 1562.28 Q1141 1568.04 1127.25 1568.04 L1114.04 1568.04 L1114.04 1520.52 Z" fill="#000000" fill-rule="nonzero" fill-opacity="1" /><path clip-path="url(#clip640)" d="M1194.47 1548.76 L1194.47 1551.62 L1167.55 1551.62 Q1167.93 1557.67 1171.18 1560.85 Q1174.45 1564 1180.28 1564 Q1183.65 1564 1186.8 1563.17 Q1189.99 1562.35 1193.11 1560.69 L1193.11 1566.23 Q1189.96 1567.57 1186.65 1568.27 Q1183.33 1568.97 1179.93 1568.97 Q1171.4 1568.97 1166.4 1564 Q1161.44 1559.04 1161.44 1550.57 Q1161.44 1541.82 1166.15 1536.69 Q1170.89 1531.54 1178.91 1531.54 Q1186.1 1531.54 1190.27 1536.18 Q1194.47 1540.8 1194.47 1548.76 M1188.62 1547.04 Q1188.55 1542.23 1185.91 1539.37 Q1183.3 1536.5 1178.97 1536.5 Q1174.07 1536.5 1171.11 1539.27 Q1168.18 1542.04 1167.74 1547.07 L1188.62 1547.04 Z" fill="#000000" fill-rule="nonzero" fill-opacity="1" /><path clip-path="url(#clip640)" d="M1231.84 1539.24 Q1234.04 1535.29 1237.09 1533.41 Q1240.15 1531.54 1244.29 1531.54 Q1249.86 1531.54 1252.88 1535.45 Q1255.9 1539.33 1255.9 1546.53 L1255.9 1568.04 L1250.02 1568.04 L1250.02 1546.72 Q1250.02 1541.59 1248.2 1539.11 Q1246.39 1536.63 1242.66 1536.63 Q1238.11 1536.63 1235.47 1539.65 Q1232.83 1542.68 1232.83 1547.9 L1232.83 1568.04 L1226.94 1568.04 L1226.94 1546.72 Q1226.94 1541.56 1225.13 1539.11 Q1223.31 1536.63 1219.52 1536.63 Q1215.04 1536.63 1212.39 1539.68 Q1209.75 1542.71 1209.75 1547.9 L1209.75 1568.04 L1203.86 1568.04 L1203.86 1532.4 L1209.75 1532.4 L1209.75 1537.93 Q1211.76 1534.66 1214.56 1533.1 Q1217.36 1531.54 1221.21 1531.54 Q1225.09 1531.54 1227.8 1533.51 Q1230.54 1535.48 1231.84 1539.24 Z" fill="#000000" fill-rule="nonzero" fill-opacity="1" /><path clip-path="url(#clip640)" d="M1283.79 1550.12 Q1276.69 1550.12 1273.95 1551.75 Q1271.21 1553.37 1271.21 1557.29 Q1271.21 1560.4 1273.25 1562.25 Q1275.32 1564.07 1278.85 1564.07 Q1283.72 1564.07 1286.65 1560.63 Q1289.61 1557.16 1289.61 1551.43 L1289.61 1550.12 L1283.79 1550.12 M1295.47 1547.71 L1295.47 1568.04 L1289.61 1568.04 L1289.61 1562.63 Q1287.61 1565.88 1284.61 1567.44 Q1281.62 1568.97 1277.29 1568.97 Q1271.82 1568.97 1268.57 1565.91 Q1265.36 1562.82 1265.36 1557.67 Q1265.36 1551.65 1269.37 1548.6 Q1273.41 1545.54 1281.4 1545.54 L1289.61 1545.54 L1289.61 1544.97 Q1289.61 1540.93 1286.94 1538.73 Q1284.29 1536.5 1279.49 1536.5 Q1276.43 1536.5 1273.54 1537.23 Q1270.64 1537.97 1267.97 1539.43 L1267.97 1534.02 Q1271.18 1532.78 1274.21 1532.17 Q1277.23 1531.54 1280.09 1531.54 Q1287.83 1531.54 1291.65 1535.55 Q1295.47 1539.56 1295.47 1547.71 Z" fill="#000000" fill-rule="nonzero" fill-opacity="1" /><path clip-path="url(#clip640)" d="M1337.16 1546.53 L1337.16 1568.04 L1331.31 1568.04 L1331.31 1546.72 Q1331.31 1541.66 1329.33 1539.14 Q1327.36 1536.63 1323.41 1536.63 Q1318.67 1536.63 1315.93 1539.65 Q1313.2 1542.68 1313.2 1547.9 L1313.2 1568.04 L1307.31 1568.04 L1307.31 1532.4 L1313.2 1532.4 L1313.2 1537.93 Q1315.3 1534.72 1318.13 1533.13 Q1320.99 1531.54 1324.72 1531.54 Q1330.86 1531.54 1334.01 1535.36 Q1337.16 1539.14 1337.16 1546.53 Z" fill="#000000" fill-rule="nonzero" fill-opacity="1" /><path clip-path="url(#clip640)" d="M1372.3 1537.81 L1372.3 1518.52 L1378.16 1518.52 L1378.16 1568.04 L1372.3 1568.04 L1372.3 1562.7 Q1370.45 1565.88 1367.62 1567.44 Q1364.82 1568.97 1360.87 1568.97 Q1354.41 1568.97 1350.34 1563.81 Q1346.3 1558.65 1346.3 1550.25 Q1346.3 1541.85 1350.34 1536.69 Q1354.41 1531.54 1360.87 1531.54 Q1364.82 1531.54 1367.62 1533.1 Q1370.45 1534.62 1372.3 1537.81 M1352.34 1550.25 Q1352.34 1556.71 1354.99 1560.4 Q1357.66 1564.07 1362.31 1564.07 Q1366.95 1564.07 1369.63 1560.4 Q1372.3 1556.71 1372.3 1550.25 Q1372.3 1543.79 1369.63 1540.13 Q1366.95 1536.44 1362.31 1536.44 Q1357.66 1536.44 1354.99 1540.13 Q1352.34 1543.79 1352.34 1550.25 Z" fill="#000000" fill-rule="nonzero" fill-opacity="1" /><polyline clip-path="url(#clip640)" style="stroke:#000000; stroke-linecap:round; stroke-linejoin:round; stroke-width:4; stroke-opacity:1; fill:none" points="139.446,1423.18 139.446,47.2441 "/>
<polyline clip-path="url(#clip640)" style="stroke:#000000; stroke-linecap:round; stroke-linejoin:round; stroke-width:4; stroke-opacity:1; fill:none" points="139.446,1423.18 158.343,1423.18 "/>
<polyline clip-path="url(#clip640)" style="stroke:#000000; stroke-linecap:round; stroke-linejoin:round; stroke-width:4; stroke-opacity:1; fill:none" points="139.446,1226.62 158.343,1226.62 "/>
<polyline clip-path="url(#clip640)" style="stroke:#000000; stroke-linecap:round; stroke-linejoin:round; stroke-width:4; stroke-opacity:1; fill:none" points="139.446,1030.06 158.343,1030.06 "/>
<polyline clip-path="url(#clip640)" style="stroke:#000000; stroke-linecap:round; stroke-linejoin:round; stroke-width:4; stroke-opacity:1; fill:none" points="139.446,833.493 158.343,833.493 "/>
<polyline clip-path="url(#clip640)" style="stroke:#000000; stroke-linecap:round; stroke-linejoin:round; stroke-width:4; stroke-opacity:1; fill:none" points="139.446,636.931 158.343,636.931 "/>
<polyline clip-path="url(#clip640)" style="stroke:#000000; stroke-linecap:round; stroke-linejoin:round; stroke-width:4; stroke-opacity:1; fill:none" points="139.446,440.369 158.343,440.369 "/>
<polyline clip-path="url(#clip640)" style="stroke:#000000; stroke-linecap:round; stroke-linejoin:round; stroke-width:4; stroke-opacity:1; fill:none" points="139.446,243.806 158.343,243.806 "/>
<polyline clip-path="url(#clip640)" style="stroke:#000000; stroke-linecap:round; stroke-linejoin:round; stroke-width:4; stroke-opacity:1; fill:none" points="139.446,47.2441 158.343,47.2441 "/>
<path clip-path="url(#clip640)" d="M91.5012 1408.98 Q87.8901 1408.98 86.0614 1412.54 Q84.2558 1416.08 84.2558 1423.21 Q84.2558 1430.32 86.0614 1433.89 Q87.8901 1437.43 91.5012 1437.43 Q95.1354 1437.43 96.941 1433.89 Q98.7696 1430.32 98.7696 1423.21 Q98.7696 1416.08 96.941 1412.54 Q95.1354 1408.98 91.5012 1408.98 M91.5012 1405.27 Q97.3113 1405.27 100.367 1409.88 Q103.446 1414.46 103.446 1423.21 Q103.446 1431.94 100.367 1436.55 Q97.3113 1441.13 91.5012 1441.13 Q85.691 1441.13 82.6123 1436.55 Q79.5568 1431.94 79.5568 1423.21 Q79.5568 1414.46 82.6123 1409.88 Q85.691 1405.27 91.5012 1405.27 Z" fill="#000000" fill-rule="nonzero" fill-opacity="1" /><path clip-path="url(#clip640)" d="M87.1262 1239.96 L103.446 1239.96 L103.446 1243.9 L81.5012 1243.9 L81.5012 1239.96 Q84.1632 1237.21 88.7466 1232.58 Q93.353 1227.93 94.5336 1226.58 Q96.7789 1224.06 97.6585 1222.32 Q98.5613 1220.56 98.5613 1218.87 Q98.5613 1216.12 96.6169 1214.38 Q94.6956 1212.65 91.5938 1212.65 Q89.3947 1212.65 86.941 1213.41 Q84.5105 1214.18 81.7327 1215.73 L81.7327 1211 Q84.5568 1209.87 87.0105 1209.29 Q89.4641 1208.71 91.5012 1208.71 Q96.8715 1208.71 100.066 1211.4 Q103.26 1214.08 103.26 1218.57 Q103.26 1220.7 102.45 1222.62 Q101.663 1224.52 99.5567 1227.12 Q98.978 1227.79 95.8761 1231 Q92.7743 1234.2 87.1262 1239.96 Z" fill="#000000" fill-rule="nonzero" fill-opacity="1" /><path clip-path="url(#clip640)" d="M93.8623 1016.85 L82.0568 1035.3 L93.8623 1035.3 L93.8623 1016.85 M92.6354 1012.78 L98.515 1012.78 L98.515 1035.3 L103.446 1035.3 L103.446 1039.19 L98.515 1039.19 L98.515 1047.34 L93.8623 1047.34 L93.8623 1039.19 L78.2605 1039.19 L78.2605 1034.67 L92.6354 1012.78 Z" fill="#000000" fill-rule="nonzero" fill-opacity="1" /><path clip-path="url(#clip640)" d="M91.9178 831.63 Q88.7697 831.63 86.9179 833.782 Q85.0892 835.935 85.0892 839.685 Q85.0892 843.412 86.9179 845.588 Q88.7697 847.741 91.9178 847.741 Q95.066 847.741 96.8947 845.588 Q98.7465 843.412 98.7465 839.685 Q98.7465 835.935 96.8947 833.782 Q95.066 831.63 91.9178 831.63 M101.2 816.977 L101.2 821.236 Q99.4409 820.403 97.6354 819.963 Q95.853 819.523 94.0937 819.523 Q89.4641 819.523 87.0105 822.648 Q84.5799 825.773 84.2327 832.093 Q85.5984 830.079 87.6586 829.014 Q89.7188 827.926 92.1956 827.926 Q97.4039 827.926 100.413 831.097 Q103.446 834.245 103.446 839.685 Q103.446 845.009 100.297 848.227 Q97.1493 851.444 91.9178 851.444 Q85.9225 851.444 82.7512 846.861 Q79.5799 842.255 79.5799 833.528 Q79.5799 825.333 83.4688 820.472 Q87.3577 815.588 93.9086 815.588 Q95.6678 815.588 97.4502 815.935 Q99.2558 816.283 101.2 816.977 Z" fill="#000000" fill-rule="nonzero" fill-opacity="1" /><path clip-path="url(#clip640)" d="M91.5938 637.799 Q88.2604 637.799 86.3392 639.581 Q84.441 641.364 84.441 644.489 Q84.441 647.614 86.3392 649.396 Q88.2604 651.178 91.5938 651.178 Q94.9271 651.178 96.8484 649.396 Q98.7696 647.591 98.7696 644.489 Q98.7696 641.364 96.8484 639.581 Q94.9502 637.799 91.5938 637.799 M86.9179 635.808 Q83.9086 635.067 82.2188 633.007 Q80.5522 630.947 80.5522 627.984 Q80.5522 623.841 83.492 621.433 Q86.4549 619.026 91.5938 619.026 Q96.7558 619.026 99.6956 621.433 Q102.635 623.841 102.635 627.984 Q102.635 630.947 100.946 633.007 Q99.2789 635.067 96.2928 635.808 Q99.6724 636.595 101.547 638.887 Q103.446 641.179 103.446 644.489 Q103.446 649.512 100.367 652.197 Q97.3113 654.882 91.5938 654.882 Q85.8762 654.882 82.7975 652.197 Q79.742 649.512 79.742 644.489 Q79.742 641.179 81.6401 638.887 Q83.5382 636.595 86.9179 635.808 M85.2049 628.424 Q85.2049 631.109 86.8716 632.614 Q88.5614 634.118 91.5938 634.118 Q94.603 634.118 96.2928 632.614 Q98.0058 631.109 98.0058 628.424 Q98.0058 625.739 96.2928 624.234 Q94.603 622.73 91.5938 622.73 Q88.5614 622.73 86.8716 624.234 Q85.2049 625.739 85.2049 628.424 Z" fill="#000000" fill-rule="nonzero" fill-opacity="1" /><path clip-path="url(#clip640)" d="M52.1495 453.713 L59.7884 453.713 L59.7884 427.348 L51.4782 429.014 L51.4782 424.755 L59.7421 423.089 L64.418 423.089 L64.418 453.713 L72.0568 453.713 L72.0568 457.649 L52.1495 457.649 L52.1495 453.713 Z" fill="#000000" fill-rule="nonzero" fill-opacity="1" /><path clip-path="url(#clip640)" d="M91.5012 426.167 Q87.8901 426.167 86.0614 429.732 Q84.2558 433.274 84.2558 440.403 Q84.2558 447.51 86.0614 451.075 Q87.8901 454.616 91.5012 454.616 Q95.1354 454.616 96.941 451.075 Q98.7696 447.51 98.7696 440.403 Q98.7696 433.274 96.941 429.732 Q95.1354 426.167 91.5012 426.167 M91.5012 422.464 Q97.3113 422.464 100.367 427.07 Q103.446 431.653 103.446 440.403 Q103.446 449.13 100.367 453.737 Q97.3113 458.32 91.5012 458.32 Q85.691 458.32 82.6123 453.737 Q79.5568 449.13 79.5568 440.403 Q79.5568 431.653 82.6123 427.07 Q85.691 422.464 91.5012 422.464 Z" fill="#000000" fill-rule="nonzero" fill-opacity="1" /><path clip-path="url(#clip640)" d="M53.7467 257.151 L61.3856 257.151 L61.3856 230.786 L53.0754 232.452 L53.0754 228.193 L61.3393 226.526 L66.0152 226.526 L66.0152 257.151 L73.654 257.151 L73.654 261.086 L53.7467 261.086 L53.7467 257.151 Z" fill="#000000" fill-rule="nonzero" fill-opacity="1" /><path clip-path="url(#clip640)" d="M87.1262 257.151 L103.446 257.151 L103.446 261.086 L81.5012 261.086 L81.5012 257.151 Q84.1632 254.397 88.7466 249.767 Q93.353 245.114 94.5336 243.772 Q96.7789 241.248 97.6585 239.512 Q98.5613 237.753 98.5613 236.063 Q98.5613 233.309 96.6169 231.573 Q94.6956 229.837 91.5938 229.837 Q89.3947 229.837 86.941 230.6 Q84.5105 231.364 81.7327 232.915 L81.7327 228.193 Q84.5568 227.059 87.0105 226.48 Q89.4641 225.901 91.5012 225.901 Q96.8715 225.901 100.066 228.587 Q103.26 231.272 103.26 235.762 Q103.26 237.892 102.45 239.813 Q101.663 241.711 99.5567 244.304 Q98.978 244.975 95.8761 248.193 Q92.7743 251.387 87.1262 257.151 Z" fill="#000000" fill-rule="nonzero" fill-opacity="1" /><path clip-path="url(#clip640)" d="M51.6634 60.5889 L59.3023 60.5889 L59.3023 34.2233 L50.9921 35.89 L50.9921 31.6308 L59.256 29.9641 L63.9319 29.9641 L63.9319 60.5889 L71.5707 60.5889 L71.5707 64.5241 L51.6634 64.5241 L51.6634 60.5889 Z" fill="#000000" fill-rule="nonzero" fill-opacity="1" /><path clip-path="url(#clip640)" d="M93.8623 34.0381 L82.0568 52.4871 L93.8623 52.4871 L93.8623 34.0381 M92.6354 29.9641 L98.515 29.9641 L98.515 52.4871 L103.446 52.4871 L103.446 56.376 L98.515 56.376 L98.515 64.5241 L93.8623 64.5241 L93.8623 56.376 L78.2605 56.376 L78.2605 51.8621 L92.6354 29.9641 Z" fill="#000000" fill-rule="nonzero" fill-opacity="1" /><path clip-path="url(#clip642)" d="M261.182 1128.34 L261.182 1423.18 L377.054 1423.18 L377.054 1128.34 L261.182 1128.34 L261.182 1128.34  Z" fill="#009af9" fill-rule="evenodd" fill-opacity="1"/>
<polyline clip-path="url(#clip642)" style="stroke:#000000; stroke-linecap:round; stroke-linejoin:round; stroke-width:4; stroke-opacity:1; fill:none" points="261.182,1128.34 261.182,1423.18 377.054,1423.18 377.054,1128.34 261.182,1128.34 "/>
<path clip-path="url(#clip642)" d="M377.054 1226.62 L377.054 1423.18 L492.927 1423.18 L492.927 1226.62 L377.054 1226.62 L377.054 1226.62  Z" fill="#009af9" fill-rule="evenodd" fill-opacity="1"/>
<polyline clip-path="url(#clip642)" style="stroke:#000000; stroke-linecap:round; stroke-linejoin:round; stroke-width:4; stroke-opacity:1; fill:none" points="377.054,1226.62 377.054,1423.18 492.927,1423.18 492.927,1226.62 377.054,1226.62 "/>
<path clip-path="url(#clip642)" d="M492.927 1226.62 L492.927 1423.18 L608.8 1423.18 L608.8 1226.62 L492.927 1226.62 L492.927 1226.62  Z" fill="#009af9" fill-rule="evenodd" fill-opacity="1"/>
<polyline clip-path="url(#clip642)" style="stroke:#000000; stroke-linecap:round; stroke-linejoin:round; stroke-width:4; stroke-opacity:1; fill:none" points="492.927,1226.62 492.927,1423.18 608.8,1423.18 608.8,1226.62 492.927,1226.62 "/>
<path clip-path="url(#clip642)" d="M608.8 833.493 L608.8 1423.18 L724.673 1423.18 L724.673 833.493 L608.8 833.493 L608.8 833.493  Z" fill="#009af9" fill-rule="evenodd" fill-opacity="1"/>
<polyline clip-path="url(#clip642)" style="stroke:#000000; stroke-linecap:round; stroke-linejoin:round; stroke-width:4; stroke-opacity:1; fill:none" points="608.8,833.493 608.8,1423.18 724.673,1423.18 724.673,833.493 608.8,833.493 "/>
<path clip-path="url(#clip642)" d="M724.673 1030.06 L724.673 1423.18 L840.546 1423.18 L840.546 1030.06 L724.673 1030.06 L724.673 1030.06  Z" fill="#009af9" fill-rule="evenodd" fill-opacity="1"/>
<polyline clip-path="url(#clip642)" style="stroke:#000000; stroke-linecap:round; stroke-linejoin:round; stroke-width:4; stroke-opacity:1; fill:none" points="724.673,1030.06 724.673,1423.18 840.546,1423.18 840.546,1030.06 724.673,1030.06 "/>
<path clip-path="url(#clip642)" d="M840.546 833.493 L840.546 1423.18 L956.419 1423.18 L956.419 833.493 L840.546 833.493 L840.546 833.493  Z" fill="#009af9" fill-rule="evenodd" fill-opacity="1"/>
<polyline clip-path="url(#clip642)" style="stroke:#000000; stroke-linecap:round; stroke-linejoin:round; stroke-width:4; stroke-opacity:1; fill:none" points="840.546,833.493 840.546,1423.18 956.419,1423.18 956.419,833.493 840.546,833.493 "/>
<path clip-path="url(#clip642)" d="M956.419 342.087 L956.419 1423.18 L1072.29 1423.18 L1072.29 342.087 L956.419 342.087 L956.419 342.087  Z" fill="#009af9" fill-rule="evenodd" fill-opacity="1"/>
<polyline clip-path="url(#clip642)" style="stroke:#000000; stroke-linecap:round; stroke-linejoin:round; stroke-width:4; stroke-opacity:1; fill:none" points="956.419,342.087 956.419,1423.18 1072.29,1423.18 1072.29,342.087 956.419,342.087 "/>
<path clip-path="url(#clip642)" d="M1072.29 342.087 L1072.29 1423.18 L1188.16 1423.18 L1188.16 342.087 L1072.29 342.087 L1072.29 342.087  Z" fill="#009af9" fill-rule="evenodd" fill-opacity="1"/>
<polyline clip-path="url(#clip642)" style="stroke:#000000; stroke-linecap:round; stroke-linejoin:round; stroke-width:4; stroke-opacity:1; fill:none" points="1072.29,342.087 1072.29,1423.18 1188.16,1423.18 1188.16,342.087 1072.29,342.087 "/>
<path clip-path="url(#clip642)" d="M1188.16 833.493 L1188.16 1423.18 L1304.04 1423.18 L1304.04 833.493 L1188.16 833.493 L1188.16 833.493  Z" fill="#009af9" fill-rule="evenodd" fill-opacity="1"/>
<polyline clip-path="url(#clip642)" style="stroke:#000000; stroke-linecap:round; stroke-linejoin:round; stroke-width:4; stroke-opacity:1; fill:none" points="1188.16,833.493 1188.16,1423.18 1304.04,1423.18 1304.04,833.493 1188.16,833.493 "/>
<path clip-path="url(#clip642)" d="M1304.04 47.2441 L1304.04 1423.18 L1419.91 1423.18 L1419.91 47.2441 L1304.04 47.2441 L1304.04 47.2441  Z" fill="#009af9" fill-rule="evenodd" fill-opacity="1"/>
<polyline clip-path="url(#clip642)" style="stroke:#000000; stroke-linecap:round; stroke-linejoin:round; stroke-width:4; stroke-opacity:1; fill:none" points="1304.04,47.2441 1304.04,1423.18 1419.91,1423.18 1419.91,47.2441 1304.04,47.2441 "/>
<path clip-path="url(#clip642)" d="M1419.91 833.493 L1419.91 1423.18 L1535.78 1423.18 L1535.78 833.493 L1419.91 833.493 L1419.91 833.493  Z" fill="#009af9" fill-rule="evenodd" fill-opacity="1"/>
<polyline clip-path="url(#clip642)" style="stroke:#000000; stroke-linecap:round; stroke-linejoin:round; stroke-width:4; stroke-opacity:1; fill:none" points="1419.91,833.493 1419.91,1423.18 1535.78,1423.18 1535.78,833.493 1419.91,833.493 "/>
<path clip-path="url(#clip642)" d="M1535.78 833.493 L1535.78 1423.18 L1651.66 1423.18 L1651.66 833.493 L1535.78 833.493 L1535.78 833.493  Z" fill="#009af9" fill-rule="evenodd" fill-opacity="1"/>
<polyline clip-path="url(#clip642)" style="stroke:#000000; stroke-linecap:round; stroke-linejoin:round; stroke-width:4; stroke-opacity:1; fill:none" points="1535.78,833.493 1535.78,1423.18 1651.66,1423.18 1651.66,833.493 1535.78,833.493 "/>
<path clip-path="url(#clip642)" d="M1651.66 636.931 L1651.66 1423.18 L1767.53 1423.18 L1767.53 636.931 L1651.66 636.931 L1651.66 636.931  Z" fill="#009af9" fill-rule="evenodd" fill-opacity="1"/>
<polyline clip-path="url(#clip642)" style="stroke:#000000; stroke-linecap:round; stroke-linejoin:round; stroke-width:4; stroke-opacity:1; fill:none" points="1651.66,636.931 1651.66,1423.18 1767.53,1423.18 1767.53,636.931 1651.66,636.931 "/>
<path clip-path="url(#clip642)" d="M1767.53 735.212 L1767.53 1423.18 L1883.4 1423.18 L1883.4 735.212 L1767.53 735.212 L1767.53 735.212  Z" fill="#009af9" fill-rule="evenodd" fill-opacity="1"/>
<polyline clip-path="url(#clip642)" style="stroke:#000000; stroke-linecap:round; stroke-linejoin:round; stroke-width:4; stroke-opacity:1; fill:none" points="1767.53,735.212 1767.53,1423.18 1883.4,1423.18 1883.4,735.212 1767.53,735.212 "/>
<path clip-path="url(#clip642)" d="M1883.4 931.774 L1883.4 1423.18 L1999.27 1423.18 L1999.27 931.774 L1883.4 931.774 L1883.4 931.774  Z" fill="#009af9" fill-rule="evenodd" fill-opacity="1"/>
<polyline clip-path="url(#clip642)" style="stroke:#000000; stroke-linecap:round; stroke-linejoin:round; stroke-width:4; stroke-opacity:1; fill:none" points="1883.4,931.774 1883.4,1423.18 1999.27,1423.18 1999.27,931.774 1883.4,931.774 "/>
<path clip-path="url(#clip642)" d="M1999.27 1226.62 L1999.27 1423.18 L2115.15 1423.18 L2115.15 1226.62 L1999.27 1226.62 L1999.27 1226.62  Z" fill="#009af9" fill-rule="evenodd" fill-opacity="1"/>
<polyline clip-path="url(#clip642)" style="stroke:#000000; stroke-linecap:round; stroke-linejoin:round; stroke-width:4; stroke-opacity:1; fill:none" points="1999.27,1226.62 1999.27,1423.18 2115.15,1423.18 2115.15,1226.62 1999.27,1226.62 "/>
<path clip-path="url(#clip642)" d="M2115.15 1324.9 L2115.15 1423.18 L2231.02 1423.18 L2231.02 1324.9 L2115.15 1324.9 L2115.15 1324.9  Z" fill="#009af9" fill-rule="evenodd" fill-opacity="1"/>
<polyline clip-path="url(#clip642)" style="stroke:#000000; stroke-linecap:round; stroke-linejoin:round; stroke-width:4; stroke-opacity:1; fill:none" points="2115.15,1324.9 2115.15,1423.18 2231.02,1423.18 2231.02,1324.9 2115.15,1324.9 "/>
<circle clip-path="url(#clip642)" style="fill:#009af9; stroke:none; fill-opacity:0" cx="319.118" cy="1128.34" r="2"/>
<circle clip-path="url(#clip642)" style="fill:#009af9; stroke:none; fill-opacity:0" cx="434.991" cy="1226.62" r="2"/>
<circle clip-path="url(#clip642)" style="fill:#009af9; stroke:none; fill-opacity:0" cx="550.864" cy="1226.62" r="2"/>
<circle clip-path="url(#clip642)" style="fill:#009af9; stroke:none; fill-opacity:0" cx="666.737" cy="833.493" r="2"/>
<circle clip-path="url(#clip642)" style="fill:#009af9; stroke:none; fill-opacity:0" cx="782.609" cy="1030.06" r="2"/>
<circle clip-path="url(#clip642)" style="fill:#009af9; stroke:none; fill-opacity:0" cx="898.482" cy="833.493" r="2"/>
<circle clip-path="url(#clip642)" style="fill:#009af9; stroke:none; fill-opacity:0" cx="1014.36" cy="342.087" r="2"/>
<circle clip-path="url(#clip642)" style="fill:#009af9; stroke:none; fill-opacity:0" cx="1130.23" cy="342.087" r="2"/>
<circle clip-path="url(#clip642)" style="fill:#009af9; stroke:none; fill-opacity:0" cx="1246.1" cy="833.493" r="2"/>
<circle clip-path="url(#clip642)" style="fill:#009af9; stroke:none; fill-opacity:0" cx="1361.97" cy="47.2441" r="2"/>
<circle clip-path="url(#clip642)" style="fill:#009af9; stroke:none; fill-opacity:0" cx="1477.85" cy="833.493" r="2"/>
<circle clip-path="url(#clip642)" style="fill:#009af9; stroke:none; fill-opacity:0" cx="1593.72" cy="833.493" r="2"/>
<circle clip-path="url(#clip642)" style="fill:#009af9; stroke:none; fill-opacity:0" cx="1709.59" cy="636.931" r="2"/>
<circle clip-path="url(#clip642)" style="fill:#009af9; stroke:none; fill-opacity:0" cx="1825.46" cy="735.212" r="2"/>
<circle clip-path="url(#clip642)" style="fill:#009af9; stroke:none; fill-opacity:0" cx="1941.34" cy="931.774" r="2"/>
<circle clip-path="url(#clip642)" style="fill:#009af9; stroke:none; fill-opacity:0" cx="2057.21" cy="1226.62" r="2"/>
<circle clip-path="url(#clip642)" style="fill:#009af9; stroke:none; fill-opacity:0" cx="2173.08" cy="1324.9" r="2"/>
</svg>
